<svg width="89" height="34" viewBox="0 0 89 34" fill="none" xmlns="http://www.w3.org/2000/svg">
<g clip-path="url(#clip0_10884_283409)">
<mask id="mask0_10884_283409" style="mask-type:luminance" maskUnits="userSpaceOnUse" x="0" y="0" width="89" height="34">
<path d="M88.4081 0H0V34H88.4081V0Z" fill="white"/>
</mask>
<g mask="url(#mask0_10884_283409)">
<path d="M78.6048 0H80.3188C81.9476 0.136369 83.3878 0.623797 84.6406 1.46228C85.9308 2.32656 86.8743 3.43317 87.4712 4.78211C88.5224 7.1621 88.4658 10.446 87.3349 12.8122C85.8076 16.0132 82.6484 17.5059 79.0013 17.3787C73.8729 17.2018 70.6739 13.5502 70.6994 8.72944C70.7106 6.34665 71.3989 4.1187 73.0993 2.42699C74.5289 1.00065 76.3642 0.191653 78.6048 0ZM83.5608 11.2891C84.116 9.84063 84.1863 8.31938 83.7705 6.72538C83.1525 4.35642 81.0277 3.09317 78.5538 3.5078C75.2072 4.06618 74.4249 7.9914 75.1537 10.5925C75.722 12.6307 77.0215 13.7493 79.0523 13.9483C81.0277 14.1418 82.8693 13.0914 83.5608 11.2891Z" fill="white"/>
<path d="M17.2622 33.9991H0V0.621021C0.0510046 0.401725 0.23991 0.292077 0.566718 0.292077C11.8066 0.279178 23.0475 0.273649 34.2893 0.275492C34.3636 0.275492 34.435 0.304615 34.4876 0.356454C34.5402 0.408294 34.5698 0.478603 34.5698 0.551915V16.8636C34.5698 17.0498 34.4744 17.1428 34.2836 17.1428L17.4464 17.1179C17.3406 17.1179 17.2877 17.1695 17.2877 17.2727L17.2622 33.9991ZM13.3179 13.4111C13.3179 13.3922 13.3217 13.3735 13.3291 13.3561C13.3365 13.3387 13.3473 13.3228 13.361 13.3095C13.3747 13.2961 13.391 13.2855 13.4088 13.2783C13.4267 13.2711 13.4458 13.2674 13.4652 13.2674H30.4554C30.4945 13.2674 30.532 13.2522 30.5596 13.2252C30.5872 13.1983 30.6027 13.1617 30.6027 13.1236V4.28915C30.6027 4.25103 30.5872 4.21447 30.5596 4.18751C30.532 4.16055 30.4945 4.14541 30.4554 4.14541H4.11437C4.07529 4.14541 4.03781 4.16055 4.01018 4.18751C3.98255 4.21447 3.96702 4.25103 3.96702 4.28915V29.9854C3.96702 30.0236 3.98255 30.0601 4.01018 30.0871C4.03781 30.114 4.07529 30.1291 4.11437 30.1291H13.1705C13.2096 30.1291 13.2471 30.114 13.2747 30.0871C13.3023 30.0601 13.3179 30.0236 13.3179 29.9854V13.4111Z" fill="white"/>
<path d="M44.2761 11.7582V16.8693C44.2761 16.9669 44.2261 17.0158 44.126 17.0158L40.3403 17.0296C40.3132 17.0296 40.2873 17.0191 40.2682 17.0004C40.2491 16.9818 40.2383 16.9565 40.2383 16.9301V0.557566C40.2383 0.448839 40.294 0.393555 40.4055 0.391712C43.5035 0.380655 46.2635 0.387105 48.6852 0.411062C52.9157 0.45529 55.1458 4.09025 54.0294 7.86343C53.2983 10.3264 50.9833 11.5122 48.45 11.5813C47.1428 11.6182 45.8072 11.6237 44.4433 11.5979C44.3318 11.596 44.2761 11.6495 44.2761 11.7582ZM44.2818 3.7696L44.2648 8.16469C44.2648 8.18892 44.2747 8.21211 44.2922 8.22923C44.3098 8.24635 44.3335 8.25595 44.3583 8.25595L47.9711 8.26979C48.2718 8.27088 48.5698 8.21697 48.8481 8.11102C49.1263 8.00507 49.3793 7.84922 49.5927 7.65232C49.8061 7.45543 49.9757 7.22143 50.0918 6.96358C50.2078 6.70573 50.2681 6.42911 50.2692 6.14958V5.82895C50.2713 5.2645 50.0323 4.7223 49.6045 4.32159C49.1767 3.92087 48.5953 3.69448 47.9881 3.6922L44.3753 3.67838C44.3505 3.67838 44.3267 3.68799 44.3092 3.70509C44.2916 3.7222 44.2818 3.74541 44.2818 3.7696Z" fill="white"/>
<path d="M67.405 9.22617C68.6971 9.70526 69.4016 10.6414 69.5186 12.0346C69.6151 13.1716 69.6854 14.328 69.7284 15.5037C69.7458 15.9773 69.8759 16.4362 70.1198 16.8803C70.169 16.9706 70.1404 17.0157 70.0346 17.0157L66.2094 17.0268C66.1572 17.0267 66.1055 17.0119 66.0619 16.9839C66.0184 16.9559 65.9835 16.9161 65.963 16.8692C65.7588 16.4196 65.6512 15.9525 65.64 15.4678C65.6188 14.5409 65.5752 13.6526 65.5093 12.8031C65.4228 11.6642 64.7917 11.0349 63.6166 10.9151C62.9233 10.8451 61.6793 10.8313 59.8847 10.8736C59.7733 10.8755 59.7175 10.9308 59.7175 11.0395V16.8527C59.7175 16.9614 59.6609 17.0157 59.5475 17.0157L55.8724 17.0268C55.7439 17.0268 55.6797 16.9651 55.6797 16.8416V0.4829C55.6797 0.457974 55.6898 0.434069 55.7079 0.416443C55.7259 0.398818 55.7505 0.388916 55.776 0.388916C58.5038 0.396287 61.3053 0.397209 64.1805 0.39168C67.2009 0.386152 69.7539 1.8429 69.9269 4.97753C70.0327 6.87009 69.1894 8.23197 67.3963 9.06309C67.2681 9.12204 67.2712 9.17638 67.405 9.22617ZM59.7147 3.59818L59.7204 7.85512C59.7204 7.87491 59.7284 7.89385 59.7428 7.90788C59.7571 7.92184 59.7766 7.92974 59.7969 7.92974L63.5681 7.92142C64.1587 7.92063 64.7251 7.70552 65.1421 7.3235C65.5597 6.94143 65.7937 6.42372 65.7925 5.8842V5.54696C65.7912 5.00782 65.5553 4.4913 65.1377 4.11087C64.7195 3.73044 64.1531 3.51721 63.5625 3.51802L59.7912 3.52355C59.7709 3.52355 59.7515 3.53141 59.7371 3.54541C59.7228 3.55941 59.7147 3.57839 59.7147 3.59818Z" fill="white"/>
<path d="M34.5514 34.0004H19.573L19.5391 19.784C19.5391 19.4984 19.6854 19.3556 19.9783 19.3556L34.4806 19.3528C34.5039 19.3528 34.5262 19.3618 34.5427 19.3779C34.5592 19.3939 34.5684 19.4157 34.5684 19.4385L34.5514 34.0004ZM30.6043 23.383C30.6043 23.3398 30.5866 23.2983 30.5553 23.2677C30.5239 23.2371 30.4814 23.2199 30.437 23.2199H23.6875C23.6431 23.2199 23.6006 23.2371 23.5692 23.2677C23.5379 23.2983 23.5203 23.3398 23.5203 23.383V29.9674C23.5203 30.0107 23.5379 30.0522 23.5692 30.0828C23.6006 30.1133 23.6431 30.1305 23.6875 30.1305H30.437C30.4814 30.1305 30.5239 30.1133 30.5553 30.0828C30.5866 30.0522 30.6043 30.0107 30.6043 29.9674V23.383Z" fill="white"/>
<path d="M43.426 29.6373V33.6537C43.426 33.7458 43.3789 33.7919 43.2844 33.7919H40.3799C40.2855 33.7919 40.2383 33.7458 40.2383 33.6537V20.648C40.2383 20.5541 40.2865 20.508 40.3828 20.5098C42.0735 20.5429 43.8171 20.5429 45.6136 20.5098C48.5407 20.4545 51.0881 21.4192 51.2751 24.6783C51.4338 27.4397 49.6486 29.2973 46.8434 29.4272C45.8006 29.4769 44.7295 29.4834 43.6301 29.4466C43.4941 29.4429 43.426 29.5064 43.426 29.6373ZM43.4289 23.2243L43.4176 26.7459C43.4176 26.7613 43.4239 26.7761 43.435 26.7869C43.4461 26.7979 43.4613 26.8039 43.4771 26.8039L46.305 26.815C46.5413 26.8158 46.7754 26.7729 46.9941 26.6889C47.2126 26.6048 47.4114 26.4812 47.579 26.3251C47.7467 26.1691 47.8798 25.9836 47.9709 25.7792C48.062 25.5749 48.1093 25.3558 48.11 25.1343V24.869C48.1114 24.4218 47.9233 23.9924 47.5869 23.6751C47.2505 23.3579 46.7935 23.1788 46.3163 23.1773L43.4884 23.1662C43.4726 23.1662 43.4575 23.1724 43.4463 23.1832C43.4352 23.1941 43.4289 23.2088 43.4289 23.2243Z" fill="white"/>
<path d="M53.9065 31.5258L53.1612 33.7289C53.1553 33.7464 53.1439 33.7616 53.1287 33.7726C53.1135 33.7835 53.0951 33.7895 53.0762 33.7897L50.0046 33.7924C49.99 33.7924 49.9757 33.789 49.9628 33.7824C49.9498 33.7758 49.9387 33.7663 49.9304 33.7546C49.9221 33.7429 49.9167 33.7295 49.9148 33.7154C49.9129 33.7013 49.9146 33.687 49.9196 33.6736L54.8331 20.5822C54.8394 20.5652 54.851 20.5505 54.8662 20.5401C54.8814 20.5298 54.8995 20.5242 54.918 20.5242H58.6045C58.6231 20.5242 58.6412 20.5298 58.6564 20.5401C58.6716 20.5505 58.6831 20.5652 58.6896 20.5822L63.7135 33.6736C63.7185 33.687 63.7204 33.7013 63.7185 33.7154C63.7166 33.7295 63.711 33.7429 63.7029 33.7546C63.6942 33.7663 63.683 33.7758 63.6706 33.7824C63.6575 33.789 63.6432 33.7924 63.6282 33.7924H60.4294C60.4105 33.7922 60.3921 33.7862 60.3769 33.7754C60.3616 33.7644 60.3502 33.7491 60.3443 33.7317L59.5878 31.5258C59.5819 31.5083 59.5705 31.493 59.5553 31.4821C59.54 31.4712 59.5217 31.4652 59.5028 31.465H53.9915C53.9726 31.4652 53.9542 31.4712 53.9389 31.4821C53.9237 31.493 53.9124 31.5083 53.9065 31.5258ZM55.1391 28.8611L58.4204 28.8638C58.5866 28.8638 58.6433 28.7874 58.5903 28.6344L56.8222 23.5123C56.758 23.3298 56.6947 23.3298 56.6324 23.5123L54.9152 28.5626C54.8472 28.7616 54.9218 28.8611 55.1391 28.8611Z" fill="white"/>
<path d="M74.0943 27.5985C75.0292 27.9376 75.5538 28.6406 75.6671 29.7076C75.7592 30.5664 75.8208 31.4998 75.8513 32.5078C75.8625 32.8727 75.9534 33.2486 76.1202 33.5748C76.1787 33.6927 76.1413 33.7508 76.0069 33.7489L73.383 33.7406C72.9772 33.7388 72.76 33.5407 72.7313 33.1464C72.6598 32.1789 72.605 31.2851 72.567 30.465C72.5216 29.468 71.9907 28.9493 70.9744 28.9087C70.0981 28.8756 69.1782 28.8701 68.2147 28.8922C68.0896 28.8959 68.0274 28.9576 68.0274 29.0774L68.0305 33.6107C68.0305 33.7324 67.9683 33.7931 67.8432 33.7931H65.0325C64.9379 33.7931 64.8906 33.7471 64.8906 33.655V20.605C64.8906 20.5879 64.8975 20.5715 64.9099 20.5591C64.9217 20.5467 64.9385 20.5394 64.956 20.5387C67.2886 20.5073 69.5796 20.5101 71.8276 20.547C74.3632 20.5885 76.1998 22.1641 75.9901 24.8011C75.8905 26.0561 75.1543 26.8301 74.0775 27.4244C73.9562 27.4926 73.9618 27.5506 74.0943 27.5985ZM68.0361 23.1122L68.0249 26.4237C68.0249 26.4508 68.0355 26.4769 68.0554 26.4961C68.0753 26.5152 68.1015 26.526 68.1295 26.526L71.0621 26.5371C71.2843 26.5378 71.504 26.4981 71.7094 26.4202C71.9142 26.3422 72.1009 26.2276 72.2583 26.0829C72.4158 25.938 72.5409 25.766 72.6262 25.5764C72.7114 25.3868 72.7562 25.1835 72.7569 24.978V24.591C72.7581 24.1761 72.582 23.7777 72.2658 23.4832C71.9503 23.1888 71.5214 23.0225 71.0739 23.021L68.1407 23.0099C68.1133 23.0099 68.0865 23.0207 68.0666 23.0399C68.0473 23.059 68.0361 23.0851 68.0361 23.1122Z" fill="white"/>
<path d="M83.9459 23.41V33.6957C83.9459 33.7214 83.9353 33.746 83.9166 33.7641C83.8979 33.7823 83.873 33.7924 83.8469 33.7924H80.7867C80.7599 33.7924 80.735 33.7823 80.7163 33.7641C80.6977 33.746 80.6871 33.7214 80.6871 33.6957V23.4072C80.6871 23.3816 80.6765 23.357 80.6584 23.3388C80.6398 23.3207 80.6143 23.3105 80.5881 23.3105L76.6068 23.3077C76.5806 23.3077 76.5551 23.2975 76.5364 23.2794C76.5184 23.2612 76.5078 23.2366 76.5078 23.211L76.5103 20.6209C76.5103 20.6082 76.5128 20.5956 76.5178 20.5839C76.5227 20.5721 76.5302 20.5615 76.5396 20.5525C76.5489 20.5435 76.5595 20.5364 76.5719 20.5315C76.5837 20.5267 76.5968 20.5242 76.6099 20.5242H88.0262C88.0523 20.5242 88.0778 20.5344 88.0965 20.5525C88.1152 20.5706 88.1251 20.5953 88.1251 20.6209V23.2082C88.1251 23.2209 88.1226 23.2335 88.1176 23.2453C88.1127 23.257 88.1058 23.2677 88.0965 23.2767C88.0871 23.2856 88.0759 23.2927 88.0641 23.2976C88.0523 23.3025 88.0392 23.3049 88.0262 23.3049L84.0448 23.3133C84.0187 23.3133 83.9938 23.3235 83.9751 23.3416C83.9564 23.3598 83.9459 23.3844 83.9459 23.41Z" fill="white"/>
</g>
</g>
<defs>
<clipPath id="clip0_10884_283409">
<rect width="89" height="34" fill="white"/>
</clipPath>
</defs>
</svg>
